<?xml version="1.0" encoding="utf-8"?><svg xmlns="http://www.w3.org/2000/svg" xmlns:xlink="http://www.w3.org/1999/xlink"><symbol fill="var(--ui-icon-fill-svg)" viewBox="0 0 24 24" id="calendar" xmlns="http://www.w3.org/2000/svg"><path vector-effect="non-scaling-stroke" fill="var(--ui-icon-fill)" fill-rule="evenodd" d="M6.75 2.25A.75.75 0 0 1 7.5 3v1.5h9V3A.75.75 0 1 1 18 3v1.5h.75a3 3 0 0 1 3 3v11.25a3 3 0 0 1-3 3H5.25a3 3 0 0 1-3-3V7.5a3 3 0 0 1 3-3H6V3a.75.75 0 0 1 .75-.75m13.5 9a1.5 1.5 0 0 0-1.5-1.5H5.25a1.5 1.5 0 0 0-1.5 1.5v7.5a1.5 1.5 0 0 0 1.5 1.5h13.5a1.5 1.5 0 0 0 1.5-1.5z" clip-rule="evenodd"/></symbol><symbol fill="var(--ui-icon-fill-svg)" viewBox="0 0 24 24" id="chevron-down" xmlns="http://www.w3.org/2000/svg"><path vector-effect="non-scaling-stroke" stroke="var(--ui-icon-stroke)" stroke-width="var(--ui-icon-stroke-width)" d="m8 10 4.228 4.228L16.456 10"/></symbol><symbol fill="var(--ui-icon-fill-svg)" viewBox="0 0 24 24" id="chevron-left" xmlns="http://www.w3.org/2000/svg"><path vector-effect="non-scaling-stroke" stroke="var(--ui-icon-stroke)" stroke-width="var(--ui-icon-stroke-width)" d="M14.228 8 10 12.228l4.228 4.228"/></symbol><symbol fill="var(--ui-icon-fill-svg)" viewBox="0 0 24 24" id="chevron-right" xmlns="http://www.w3.org/2000/svg"><path vector-effect="non-scaling-stroke" stroke="var(--ui-icon-stroke)" stroke-width="var(--ui-icon-stroke-width)" d="m10 8 4 4-4 4"/></symbol><symbol fill="var(--ui-icon-fill-svg)" viewBox="0 0 24 24" id="moon" xmlns="http://www.w3.org/2000/svg"><path vector-effect="non-scaling-stroke" fill="var(--ui-icon-fill)" fill-rule="evenodd" d="M9.528 1.718a.75.75 0 0 1 .162.819A9 9 0 0 0 9 6a9 9 0 0 0 9 9 9 9 0 0 0 3.463-.69.75.75 0 0 1 .981.98 10.5 10.5 0 0 1-9.694 6.46c-5.799 0-10.5-4.7-10.5-10.5 0-4.368 2.667-8.112 6.46-9.694a.75.75 0 0 1 .818.162" clip-rule="evenodd"/></symbol><symbol fill="var(--ui-icon-fill-svg)" viewBox="0 0 24 24" id="plus-circle" xmlns="http://www.w3.org/2000/svg"><path vector-effect="non-scaling-stroke" fill="var(--ui-icon-fill)" d="M12 2c5.523 0 10 4.477 10 10s-4.477 10-10 10S2 17.523 2 12 6.477 2 12 2m-.792 9.208H8.89v1.612h2.318v2.32h1.612v-2.32h2.32v-1.612h-2.32V8.89h-1.612z"/></symbol><symbol fill="var(--ui-icon-fill-svg)" viewBox="0 0 24 24" id="trash" xmlns="http://www.w3.org/2000/svg"><path vector-effect="non-scaling-stroke" fill="var(--ui-icon-fill)" d="M17.556 7.556v10.667c0 .982-.797 1.777-1.779 1.777h-7.11a1.78 1.78 0 0 1-1.778-1.777V7.556zM14.444 4l.889.889h3.111v1.778H6V4.889h3.111L10 4z"/></symbol></svg>